<?xml version="1.0" standalone="no"?>
<!DOCTYPE svg PUBLIC "-//W3C//DTD SVG 20010904//EN"
 "http://www.w3.org/TR/2001/REC-SVG-20010904/DTD/svg10.dtd">
<svg version="1.0" xmlns="http://www.w3.org/2000/svg"
 width="700.000000pt" height="700.000000pt" viewBox="0 0 700.000000 700.000000"
 preserveAspectRatio="xMidYMid meet">
<metadata>
Created by potrace 1.11, written by Peter Selinger 2001-2013
</metadata>
<g transform="translate(0.000000,700.000000) scale(0.100000,-0.100000)"
fill="#000000" stroke="none">
<path d="M3255 6994 c-548 -45 -1048 -198 -1501 -460 -1088 -628 -1754 -1780
-1754 -3034 0 -1175 585 -2264 1565 -2915 464 -308 940 -484 1520 -562 183
-24 647 -24 830 0 231 31 393 66 602 128 756 226 1431 724 1882 1389 537 791
725 1768 520 2710 -170 786 -625 1509 -1261 2007 -492 385 -1076 630 -1698
713 -150 20 -574 34 -705 24z m1983 -2157 l242 -242 -1338 -1337 c-1150 -1150
-1340 -1335 -1357 -1328 -11 5 -297 285 -635 624 l-615 616 245 245 245 245
385 -385 385 -385 1095 1095 c602 602 1097 1095 1100 1095 3 0 114 -109 248
-243z"/>
</g>
</svg>
